<?xml version="1.0" standalone="no"?><svg xmlns="http://www.w3.org/2000/svg" viewBox="0 0 1440 320"><path fill="#ED008C" fill-opacity="1" d="M0,288L34.3,266.7C68.6,245,137,203,206,202.7C274.3,203,343,245,411,245.3C480,245,549,203,617,202.7C685.7,203,754,245,823,245.3C891.4,245,960,203,1029,202.7C1097.1,203,1166,245,1234,266.7C1302.9,288,1371,288,1406,288L1440,288L1440,320L1405.7,320C1371.4,320,1303,320,1234,320C1165.7,320,1097,320,1029,320C960,320,891,320,823,320C754.3,320,686,320,617,320C548.6,320,480,320,411,320C342.9,320,274,320,206,320C137.1,320,69,320,34,320L0,320Z"></path></svg>