<svg id="Layer_1" data-name="Layer 1" xmlns="http://www.w3.org/2000/svg" viewBox="0 0 10.01 9.55"><defs><style>.cls-1{fill:#ec0b8c;}</style></defs><path class="cls-1" d="M22.41,18l-1.07-2.15L20.27,18a.38.38,0,0,1-.3.22l-2.38.35,1.73,1.68a.41.41,0,0,1,.11.35L19,23l2.13-1.13a.4.4,0,0,1,.37,0L23.66,23l-.41-2.38a.41.41,0,0,1,.11-.35l1.73-1.68-2.38-.35A.38.38,0,0,1,22.41,18Z" transform="translate(-16.34 -14.58)"/><path class="cls-1" d="M26.32,18.2a.38.38,0,0,0-.32-.27l-3-.44L21.7,14.8a.4.4,0,0,0-.72,0l-1.33,2.69-3,.44a.38.38,0,0,0-.32.27.4.4,0,0,0,.1.41l2.15,2.09-.51,3a.4.4,0,0,0,.58.42l2.66-1.4L24,24.09a.41.41,0,0,0,.19,0,.39.39,0,0,0,.23-.07.42.42,0,0,0,.16-.39l-.51-3,2.15-2.09A.4.4,0,0,0,26.32,18.2Zm-3,2.08a.41.41,0,0,0-.11.35L23.66,23l-2.14-1.13a.4.4,0,0,0-.37,0L19,23l.41-2.38a.41.41,0,0,0-.11-.35L17.59,18.6,20,18.25a.38.38,0,0,0,.3-.22l1.07-2.15L22.41,18a.38.38,0,0,0,.3.22l2.38.35Z" transform="translate(-16.34 -14.58)"/></svg>